<svg width="85" height="36" viewBox="0 0 85 36" fill="none" xmlns="http://www.w3.org/2000/svg">
<path d="M12.6037 0.677365C10.1956 0.286001 8.10016 1.52938 6.15832 4.60037C5.82875 4.16032 5.57034 3.75959 5.43177 3.51803C5.1977 3.11356 4.67901 2.97312 4.27454 3.20719C3.86819 3.44126 3.72962 3.95995 3.96369 4.3663C3.99927 4.42996 4.4955 5.28198 5.25388 6.18829C4.9936 6.69201 4.73331 7.22943 4.47677 7.80431C4.21461 7.4429 4.0105 7.12082 3.89253 6.91484C3.65846 6.5085 3.13977 6.36993 2.73342 6.604C2.32708 6.83807 2.18851 7.35677 2.42258 7.76311C2.46003 7.82678 2.96187 8.68815 3.72775 9.60196C3.21841 10.9015 2.7147 12.3471 2.2166 13.9482C-0.498605 22.648 1.05 25.3127 1.23538 25.588C1.23538 25.588 1.7185 26.3969 2.4282 25.9662C3.08921 25.5655 2.73342 24.8127 2.65665 24.6667C2.65665 24.6667 2.65665 24.6667 2.65852 24.6667C2.68099 24.6536 1.38893 22.2941 3.83636 14.4537C4.19214 13.3171 4.591 12.1056 5.03479 10.9034C5.32504 11.1356 5.63026 11.3397 5.94485 11.4951C6.06657 11.555 6.1939 11.5831 6.32124 11.5831C6.63395 11.5831 6.93356 11.4108 7.08149 11.1112C7.28935 10.6918 7.11707 10.1825 6.69762 9.9746C6.35869 9.80607 6.01788 9.53829 5.69206 9.22745C5.94673 8.61512 6.21637 8.01778 6.49726 7.44478C6.81185 7.70319 7.14329 7.92977 7.48597 8.10017C7.60768 8.16009 7.73501 8.18818 7.86235 8.18818C8.17507 8.18818 8.47467 8.0159 8.62261 7.7163C8.83046 7.29684 8.65818 6.78751 8.23873 6.57966C7.93163 6.42798 7.62079 6.19204 7.32305 5.91677C8.70874 3.59481 10.3697 2.03497 12.334 2.3533C13.3077 2.5106 13.9762 2.89072 14.4406 3.54799C15.5642 5.13592 15.6203 8.45783 14.6167 14.0025C13.2085 21.796 10.9015 26.1404 7.3605 27.674C6.33622 28.1178 5.77632 28.1084 5.54974 28.041C9.35477 19.8729 11.9127 9.19561 12.0531 8.60389C12.1617 8.14886 11.879 7.69195 11.4239 7.58334C10.967 7.47661 10.512 7.75749 10.4034 8.21252C10.3585 8.39978 5.88493 27.0766 0.205475 33.6643C-0.0997515 34.0182 -0.0604278 34.5537 0.293485 34.8608C0.454525 34.9994 0.651143 35.0668 0.847761 35.0668C1.08558 35.0668 1.32339 34.9676 1.49005 34.7728C2.66227 33.4134 3.77456 31.6045 4.80821 29.5709C5.07224 29.6888 5.4093 29.7712 5.83625 29.7712C6.39988 29.7712 7.12082 29.6289 8.03462 29.2319C12.1449 27.4511 14.7665 22.708 16.2851 14.3039C17.388 8.19942 17.2457 4.57977 15.8244 2.56865C15.0904 1.53125 14.038 0.913307 12.6055 0.679238L12.6037 0.677365Z" fill="#EF7F18"/>
<path d="M27.2887 8.58789C25.9892 8.58789 24.8638 9.05603 23.9444 9.98107C23.0268 10.9042 22.5605 12.0353 22.5605 13.3442V23.2462C22.5605 23.4691 22.6486 23.6825 22.8115 23.8436C22.9725 24.0046 23.1841 24.0945 23.4088 24.0945C23.6335 24.0945 23.8564 23.999 24.0155 23.8267C24.1635 23.6657 24.2402 23.4653 24.2402 23.2481V17.5612H27.2887C27.5116 17.5612 27.725 17.4732 27.8861 17.3102C28.0471 17.1473 28.137 16.9395 28.137 16.7129C28.137 16.4863 28.049 16.2785 27.8861 16.1156C27.725 15.9545 27.5135 15.8665 27.2887 15.8665H24.2402V13.3461C24.2402 12.494 24.5342 11.7862 25.1391 11.1814C25.7439 10.5765 26.4461 10.2826 27.2887 10.2826C28.1314 10.2826 28.8448 10.5765 29.4441 11.1795C30.0451 11.7843 30.3373 12.4922 30.3373 13.3442C30.3373 13.5782 30.4328 13.7936 30.605 13.9509C30.7661 14.0988 30.9664 14.1775 31.1837 14.1775C31.4009 14.1775 31.6031 14.0988 31.7623 13.9528C31.9346 13.7955 32.0301 13.5782 32.0301 13.3461C32.0301 12.0371 31.5619 10.9042 30.6387 9.98107C29.7156 9.0579 28.5883 8.58976 27.2887 8.58976V8.58789Z" fill="#EF7F18"/>
<path d="M34.3791 5.76367C34.0832 5.76367 33.8173 5.92846 33.6506 6.21308C33.5327 6.41345 33.4746 6.64752 33.4746 6.90967V22.9462C33.4746 23.2084 33.5345 23.4425 33.6506 23.6428C33.8173 23.9293 34.0832 24.0941 34.3791 24.0941C34.6749 24.0941 34.9389 23.9293 35.1075 23.6447C35.2236 23.4443 35.2835 23.2103 35.2835 22.9481V6.90967C35.2835 6.64752 35.2236 6.41345 35.1075 6.21308C34.9408 5.92658 34.6749 5.76367 34.3791 5.76367Z" fill="#EF7F18"/>
<path d="M42.3285 12.9844C40.793 12.9844 39.4635 13.5312 38.3737 14.6098C37.2838 15.6902 36.7314 17.0122 36.7314 18.5402C36.7314 20.0682 37.2838 21.3903 38.3737 22.4707C39.4616 23.5493 40.793 24.0961 42.3285 24.0961C42.5645 24.0961 42.7798 24.0044 42.9558 23.8302C43.1281 23.6561 43.2198 23.437 43.2198 23.1917C43.2198 22.9464 43.1281 22.7404 42.9558 22.5662C42.7835 22.394 42.5663 22.3022 42.3304 22.3022C41.3173 22.3022 40.4766 21.9783 39.7594 21.3116C39.192 20.7854 38.825 20.1712 38.6433 19.4466H47.008C47.2533 19.4466 47.4743 19.3548 47.6484 19.1825C47.8207 19.0103 47.9125 18.7874 47.9125 18.5421C47.9125 17.0141 47.3601 15.6921 46.2684 14.6116C45.1804 13.533 43.8546 12.9862 42.3285 12.9862V12.9844ZM38.6433 17.6358C38.825 16.9111 39.192 16.2969 39.7594 15.7707C40.4766 15.1041 41.3173 14.7802 42.3304 14.7802C43.3434 14.7802 44.1692 15.1041 44.8864 15.7707C45.4538 16.2988 45.8208 16.913 46.0025 17.6377H38.6452L38.6433 17.6358Z" fill="#EF7F18"/>
<path d="M59.4683 5.80664C59.2193 5.80664 58.989 5.90589 58.8223 6.08565C58.6632 6.25605 58.5789 6.47327 58.5789 6.71108V14.4391C57.5658 13.4616 56.3112 12.9692 54.8319 12.9692C53.3526 12.9692 51.9969 13.5197 50.9164 14.6039C49.8378 15.6881 49.291 17.012 49.291 18.5381C49.291 20.0643 49.8378 21.3863 50.9183 22.4668C51.9969 23.5472 53.3151 24.094 54.8319 24.094C56.3487 24.094 57.667 23.5472 58.7455 22.4668C59.8241 21.3863 60.3728 20.0661 60.3728 18.5381V6.71108C60.3728 6.46578 60.281 6.24482 60.1069 6.07067C59.9346 5.8984 59.7136 5.80664 59.4683 5.80664ZM54.8319 22.2982C53.7889 22.2982 52.9238 21.9368 52.1841 21.1934C51.4445 20.45 51.0849 19.5811 51.0849 18.5363C51.0849 17.4914 51.4445 16.6131 52.1822 15.8735C52.9219 15.1338 53.787 14.7762 54.8319 14.7762C55.8768 14.7762 56.7419 15.1357 57.4797 15.8735C58.2194 16.6131 58.577 17.4839 58.577 18.5363C58.577 19.5886 58.2175 20.45 57.4778 21.1934C56.7382 21.9368 55.873 22.2982 54.83 22.2982H54.8319Z" fill="#EF7F18"/>
<path d="M74.0509 24.6094H72.3019V18.8082C72.3019 17.3757 71.7832 16.1324 70.7589 15.1137C69.7365 14.0969 68.4912 13.5801 67.0606 13.5801C65.63 13.5801 64.3716 14.0969 63.353 15.1137C62.3343 16.1324 61.8193 17.3739 61.8193 18.8064C61.8193 20.2389 62.3362 21.4804 63.353 22.4991C64.3716 23.5177 65.6187 24.0327 67.0606 24.0327C68.5025 24.0327 69.6035 23.5889 70.5511 22.7088V24.6075H67.0606C65.6187 24.6075 64.3716 25.1244 63.353 26.1412C62.3343 27.158 61.8193 28.4013 61.8193 29.8338C61.8193 31.2664 62.3362 32.5079 63.353 33.5265C64.3697 34.5452 65.6187 35.0601 67.0606 35.0601C68.5025 35.0601 69.7365 34.5452 70.7589 33.5265C71.7813 32.5079 72.3019 31.2664 72.3019 29.832V26.3696H74.0509C74.2962 26.3696 74.5134 26.2816 74.6838 26.1112C74.8523 25.9427 74.9403 25.7236 74.9403 25.4783C74.9403 25.233 74.8486 25.0251 74.6838 24.8603C74.5152 24.6918 74.2962 24.6038 74.0509 24.6038V24.6094ZM67.0606 15.3328C68.0287 15.3328 68.8339 15.6661 69.5249 16.3533C70.2159 17.0387 70.5511 17.842 70.5511 18.8082C70.5511 19.7745 70.2159 20.5741 69.5268 21.2557C68.8358 21.9392 68.0287 22.2706 67.0606 22.2706C66.0925 22.2706 65.2854 21.9392 64.5945 21.2557C63.9054 20.5741 63.5702 19.7745 63.5702 18.8082C63.5702 17.842 63.9054 17.0387 64.5963 16.3533C65.2873 15.6661 66.0925 15.3328 67.0606 15.3328ZM67.0606 26.3752H70.5511V29.8376C70.5511 30.8038 70.2159 31.6072 69.5249 32.2925C68.8339 32.9797 68.0269 33.3131 67.0606 33.3131C66.0944 33.3131 65.2873 32.9797 64.5963 32.2925C63.9054 31.6072 63.5702 30.8038 63.5702 29.8376C63.5702 28.8714 63.9054 28.0718 64.5945 27.3902C65.2854 26.7067 66.0925 26.3752 67.0606 26.3752Z" fill="#EF7F18"/>
<path d="M83.3532 14.6098C82.2653 13.5312 80.9395 12.9844 79.4134 12.9844C77.8873 12.9844 76.5465 13.5312 75.4586 14.6098C74.3687 15.6902 73.8145 17.0122 73.8145 18.5402C73.8145 20.0682 74.3669 21.3903 75.4586 22.4707C76.5465 23.5493 77.8779 24.0961 79.4134 24.0961C79.6493 24.0961 79.8647 24.0044 80.0407 23.8302C80.213 23.6561 80.3047 23.437 80.3047 23.1917C80.3047 22.9464 80.213 22.7404 80.0407 22.5662C79.8684 22.394 79.6512 22.3022 79.4153 22.3022C78.4022 22.3022 77.5614 21.9783 76.8442 21.3116C76.2769 20.7854 75.9098 20.1712 75.7282 19.4466H84.0948C84.3401 19.4466 84.561 19.3548 84.7352 19.1825C84.9075 19.0103 84.9992 18.7874 84.9992 18.5421C84.9992 17.0141 84.4468 15.6921 83.3551 14.6116L83.3532 14.6098ZM75.7282 17.6358C75.908 16.9111 76.2769 16.2969 76.8442 15.7707C77.5614 15.1041 78.4022 14.7802 79.4153 14.7802C80.4283 14.7802 81.2541 15.1041 81.9713 15.7707C82.5387 16.2988 82.9057 16.913 83.0873 17.6358H75.7301H75.7282Z" fill="#EF7F18"/>
</svg>
