<svg width="200" height="40" viewBox="0 0 200 40" fill="none" xmlns="http://www.w3.org/2000/svg">
<path fill-rule="evenodd" clip-rule="evenodd" d="M184.5 40C193.06 40 200 33.0604 200 24.5C200 15.9396 193.06 9.00002 184.5 9.00002L106.01 9.00001L100.756 0.910689C99.9672 -0.30343 98.1899 -0.303426 97.4013 0.910693L92.1471 9.00001L15.5 9C6.93959 9 2.10343e-06 15.9396 1.35505e-06 24.5C6.06677e-07 33.0604 6.93959 40 15.5 40L184.5 40Z" fill="#FAE100"/>
<path d="M19.9844 17.5C21.3545 17.5 22.6218 17.7667 23.7861 18.3C24.9505 18.8333 25.871 19.5585 26.5476 20.4756C27.2242 21.3927 27.5625 22.393 27.5625 23.4766C27.5625 24.5602 27.2242 25.5619 26.5476 26.4819C25.871 27.4018 24.9519 28.1284 23.7903 28.6617C22.6288 29.195 21.3602 29.4617 19.9844 29.4617C19.5502 29.4617 19.1019 29.4307 18.6396 29.3686C16.6323 30.7626 15.5638 31.468 15.4341 31.4849C15.3721 31.5075 15.3129 31.5047 15.2565 31.4765C15.2339 31.4596 15.217 31.437 15.2057 31.4088C15.1945 31.3805 15.1888 31.3552 15.1888 31.3326V31.2987C15.2227 31.0786 15.4792 30.1615 15.9585 28.5474C14.8703 28.0057 14.0062 27.2875 13.3662 26.393C12.7262 25.4985 12.4062 24.5263 12.4062 23.4766C12.4062 22.393 12.7446 21.3927 13.4212 20.4756C14.0978 19.5585 15.0183 18.8333 16.1826 18.3C17.347 17.7667 18.6142 17.5 19.9844 17.5Z" fill="#3C1D1E"/>
<path d="M34.0119 18.96H40.1769C40.1769 23.01 38.9919 26.55 34.0719 29.025L33.2319 27.825C35.6019 26.64 37.0269 25.23 37.8219 23.565L33.5319 23.985L33.3219 22.65L38.2869 22.335C38.4669 21.675 38.5869 20.97 38.6469 20.22H34.0119V18.96ZM45.7269 22.95V24.24H43.6719V31.14H42.1269V17.595H43.6719V22.95H45.7269ZM47.8107 18.96H53.9757C53.9757 23.01 52.7907 26.55 47.8707 29.025L47.0307 27.825C49.4007 26.64 50.8257 25.23 51.6207 23.565L47.3307 23.985L47.1207 22.65L52.0857 22.335C52.2657 21.675 52.3857 20.97 52.4457 20.22H47.8107V18.96ZM59.5257 22.95V24.24H57.4707V31.14H55.9257V17.595H57.4707V22.95H59.5257ZM63.4245 22.035C63.4245 23.505 64.8795 24.435 66.9045 24.435C68.9145 24.435 70.3695 23.505 70.3695 22.035C70.3695 20.565 68.9145 19.635 66.9045 19.635C64.8795 19.635 63.4245 20.565 63.4245 22.035ZM67.6695 28.23H73.0545V29.49H60.7845V28.23H66.1245V25.635C63.6495 25.41 61.9245 24.045 61.9245 22.035C61.9245 19.83 64.0245 18.405 66.9045 18.405C69.7695 18.405 71.8845 19.83 71.8845 22.035C71.8845 24.045 70.1445 25.425 67.6695 25.65V28.23ZM81.9484 21.27V17.94H83.3884V30.495H81.9484V25.935H79.7284V24.675H81.9484V22.53H79.9684C79.3384 24.81 77.9134 26.775 75.3784 28.29L74.4934 27.195C77.2834 25.5 78.6334 23.295 78.8584 20.52H75.1534V19.275H80.3884C80.3884 19.965 80.3434 20.64 80.2384 21.27H81.9484ZM84.6784 17.61H86.1634V31.155H84.6784V17.61ZM95.6572 21.015H98.0572V17.61H99.6022V25.68H98.0572V22.275H95.6572V21.015ZM96.4372 24.03L95.6722 25.245C94.1722 24.72 93.0922 23.655 92.5222 22.35C91.9222 23.835 90.7822 25.035 89.1772 25.605L88.3822 24.375C90.4822 23.625 91.6972 21.825 91.6972 19.965V19.77H88.8322V18.525H96.0772V19.77H93.2572V19.95C93.2572 21.645 94.4122 23.325 96.4372 24.03ZM95.1022 29.97C97.0072 29.97 98.1172 29.49 98.1172 28.605C98.1172 27.72 97.0072 27.24 95.1022 27.24C93.1672 27.24 92.0722 27.72 92.0722 28.605C92.0722 29.49 93.1672 29.97 95.1022 29.97ZM95.1022 26.04C97.9222 26.04 99.6622 27 99.6622 28.605C99.6622 30.225 97.9222 31.17 95.1022 31.17C92.2672 31.17 90.5272 30.225 90.5272 28.605C90.5272 27 92.2672 26.04 95.1022 26.04ZM108.301 18.375C111.121 18.375 113.281 19.905 113.281 22.2C113.281 24.51 111.121 26.025 108.301 26.025C105.466 26.025 103.321 24.51 103.321 22.2C103.321 19.905 105.466 18.375 108.301 18.375ZM108.301 19.65C106.291 19.65 104.821 20.64 104.821 22.2C104.821 23.76 106.291 24.75 108.301 24.75C110.296 24.75 111.781 23.76 111.781 22.2C111.781 20.64 110.296 19.65 108.301 19.65ZM102.181 28.17H114.451V29.445H102.181V28.17ZM122.865 28.29H128.25V29.565H115.98V28.29H121.32V25.98H117.465V21.615H125.265V19.8H117.435V18.555H126.795V22.845H118.98V24.735H127.095V25.98H122.865V28.29ZM141.668 19.005V20.55H133.373V19.005H136.538V17.52H138.518V19.005H141.668ZM135.983 23.7C135.983 24.405 136.613 24.795 137.528 24.795C138.458 24.795 139.073 24.405 139.073 23.7C139.073 22.98 138.458 22.59 137.528 22.59C136.613 22.59 135.983 22.98 135.983 23.7ZM138.518 26.19V27.285C139.643 27.225 140.768 27.15 141.848 27L141.998 28.425C138.983 28.98 135.788 28.995 133.343 28.995L133.103 27.39C134.138 27.39 135.308 27.39 136.538 27.36V26.19C135.053 25.905 134.093 24.975 134.093 23.7C134.093 22.14 135.503 21.09 137.528 21.09C139.538 21.09 140.948 22.14 140.948 23.7C140.948 24.975 139.988 25.905 138.518 26.19ZM142.568 17.475H144.548V31.29H142.568V17.475ZM153.877 25.5H156.472V17.475H158.452V27.945H156.472V26.85H153.877V25.5ZM151.222 19.38C150.292 19.38 149.647 19.74 149.647 20.415C149.647 21.09 150.292 21.435 151.222 21.435C152.137 21.435 152.782 21.09 152.782 20.415C152.782 19.74 152.137 19.38 151.222 19.38ZM151.222 22.875C149.197 22.875 147.772 21.885 147.772 20.415C147.772 18.945 149.197 17.94 151.222 17.94C153.232 17.94 154.657 18.945 154.657 20.415C154.657 21.885 153.232 22.875 151.222 22.875ZM150.487 29.475H158.752V31.05H148.507V26.94H150.427V25.095C149.212 25.155 148.057 25.17 147.022 25.17L146.767 23.595C149.287 23.58 152.647 23.55 155.557 23.175L155.692 24.585C154.612 24.78 153.502 24.9 152.392 24.975V27.585H150.487V29.475ZM161.255 18.885H167.765C167.765 23.025 166.19 26.58 161.6 28.905L160.49 27.39C163.7 25.74 165.41 23.55 165.77 20.49H161.255V18.885ZM173.375 22.74V24.375H171.44V31.26H169.46V17.46H171.44V22.74H173.375ZM183.904 17.475H185.899V24.9H183.904V17.475ZM176.719 25.5H178.684V26.79H183.934V25.5H185.899V31.125H176.719V25.5ZM178.684 28.305V29.565H183.934V28.305H178.684ZM178.384 18.045C180.529 18.045 182.134 19.41 182.134 21.3C182.134 23.205 180.529 24.57 178.384 24.57C176.239 24.57 174.619 23.205 174.619 21.3C174.619 19.41 176.239 18.045 178.384 18.045ZM178.384 19.68C177.334 19.68 176.554 20.295 176.554 21.3C176.554 22.335 177.334 22.935 178.384 22.935C179.434 22.935 180.199 22.335 180.199 21.3C180.199 20.295 179.434 19.68 178.384 19.68Z" fill="#271F17"/>
</svg>
