<svg width="192" height="40" viewBox="0 0 192 40" fill="none" xmlns="http://www.w3.org/2000/svg">
<path fill-rule="evenodd" clip-rule="evenodd" d="M176.5 40C185.06 40 192 33.0604 192 24.5C192 15.9396 185.06 9.00002 176.5 9.00002L102.01 9.00001L96.7558 0.91069C95.9672 -0.303429 94.1899 -0.303426 93.4013 0.910693L88.1471 9.00001L15.5 9C6.93959 9 2.10343e-06 15.9396 1.35505e-06 24.5C6.06677e-07 33.0604 6.93959 40 15.5 40L176.5 40Z" fill="#FAE100"/>
<path d="M21.9844 17.5C23.3545 17.5 24.6218 17.7667 25.7861 18.3C26.9505 18.8333 27.871 19.5585 28.5476 20.4756C29.2242 21.3927 29.5625 22.393 29.5625 23.4766C29.5625 24.5602 29.2242 25.5619 28.5476 26.4819C27.871 27.4018 26.9519 28.1284 25.7903 28.6617C24.6288 29.195 23.3602 29.4617 21.9844 29.4617C21.5502 29.4617 21.1019 29.4307 20.6396 29.3686C18.6323 30.7626 17.5638 31.468 17.4341 31.4849C17.3721 31.5075 17.3129 31.5047 17.2565 31.4765C17.2339 31.4596 17.217 31.437 17.2057 31.4088C17.1945 31.3805 17.1888 31.3552 17.1888 31.3326V31.2987C17.2227 31.0786 17.4792 30.1615 17.9585 28.5474C16.8703 28.0057 16.0062 27.2875 15.3662 26.393C14.7262 25.4985 14.4062 24.5263 14.4062 23.4766C14.4062 22.393 14.7446 21.3927 15.4212 20.4756C16.0978 19.5585 17.0183 18.8333 18.1826 18.3C19.347 17.7667 20.6142 17.5 21.9844 17.5Z" fill="#3C1D1E"/>
<path d="M36.9113 18.96H43.0763C43.0763 23.01 41.8913 26.55 36.9713 29.025L36.1313 27.825C38.5013 26.64 39.9263 25.23 40.7213 23.565L36.4313 23.985L36.2213 22.65L41.1863 22.335C41.3663 21.675 41.4863 20.97 41.5463 20.22H36.9113V18.96ZM48.6263 22.95V24.24H46.5713V31.14H45.0263V17.595H46.5713V22.95H48.6263ZM50.7101 18.96H56.8751C56.8751 23.01 55.6901 26.55 50.7701 29.025L49.9301 27.825C52.3001 26.64 53.7251 25.23 54.5201 23.565L50.2301 23.985L50.0201 22.65L54.9851 22.335C55.1651 21.675 55.2851 20.97 55.3451 20.22H50.7101V18.96ZM62.4251 22.95V24.24H60.3701V31.14H58.8251V17.595H60.3701V22.95H62.4251ZM66.3239 22.035C66.3239 23.505 67.7789 24.435 69.8039 24.435C71.8139 24.435 73.2689 23.505 73.2689 22.035C73.2689 20.565 71.8139 19.635 69.8039 19.635C67.7789 19.635 66.3239 20.565 66.3239 22.035ZM70.5689 28.23H75.9539V29.49H63.6839V28.23H69.0239V25.635C66.5489 25.41 64.8239 24.045 64.8239 22.035C64.8239 19.83 66.9239 18.405 69.8039 18.405C72.6689 18.405 74.7839 19.83 74.7839 22.035C74.7839 24.045 73.0439 25.425 70.5689 25.65V28.23ZM84.8478 21.27V17.94H86.2878V30.495H84.8478V25.935H82.6278V24.675H84.8478V22.53H82.8678C82.2378 24.81 80.8128 26.775 78.2778 28.29L77.3928 27.195C80.1828 25.5 81.5328 23.295 81.7578 20.52H78.0528V19.275H83.2878C83.2878 19.965 83.2428 20.64 83.1378 21.27H84.8478ZM87.5778 17.61H89.0628V31.155H87.5778V17.61ZM98.5566 21.015H100.957V17.61H102.502V25.68H100.957V22.275H98.5566V21.015ZM99.3366 24.03L98.5716 25.245C97.0716 24.72 95.9916 23.655 95.4216 22.35C94.8216 23.835 93.6816 25.035 92.0766 25.605L91.2816 24.375C93.3816 23.625 94.5966 21.825 94.5966 19.965V19.77H91.7316V18.525H98.9766V19.77H96.1566V19.95C96.1566 21.645 97.3116 23.325 99.3366 24.03ZM98.0016 29.97C99.9066 29.97 101.017 29.49 101.017 28.605C101.017 27.72 99.9066 27.24 98.0016 27.24C96.0666 27.24 94.9716 27.72 94.9716 28.605C94.9716 29.49 96.0666 29.97 98.0016 29.97ZM98.0016 26.04C100.822 26.04 102.562 27 102.562 28.605C102.562 30.225 100.822 31.17 98.0016 31.17C95.1666 31.17 93.4266 30.225 93.4266 28.605C93.4266 27 95.1666 26.04 98.0016 26.04ZM111.2 18.375C114.02 18.375 116.18 19.905 116.18 22.2C116.18 24.51 114.02 26.025 111.2 26.025C108.365 26.025 106.22 24.51 106.22 22.2C106.22 19.905 108.365 18.375 111.2 18.375ZM111.2 19.65C109.19 19.65 107.72 20.64 107.72 22.2C107.72 23.76 109.19 24.75 111.2 24.75C113.195 24.75 114.68 23.76 114.68 22.2C114.68 20.64 113.195 19.65 111.2 19.65ZM105.08 28.17H117.35V29.445H105.08V28.17ZM125.764 28.29H131.149V29.565H118.879V28.29H124.219V25.98H120.364V21.615H128.164V19.8H120.334V18.555H129.694V22.845H121.879V24.735H129.994V25.98H125.764V28.29ZM143.157 28.155H148.437V29.775H135.927V28.155H141.177V26.1H137.367V21.42H145.077V19.935H137.352V18.36H147.027V22.965H139.332V24.51H147.342V26.1H143.157V28.155ZM158.711 20.385V20.325H151.016V18.75H160.691V20.385C160.691 22.32 160.691 24.21 160.181 27.045L158.216 26.865C158.711 24.225 158.711 22.26 158.711 20.385ZM149.726 27.87H162.221V29.49H149.726V27.87ZM175 17.49V27.405H173.005V17.49H175ZM165.655 21.87C165.655 22.98 166.465 23.655 167.485 23.655C168.52 23.655 169.3 22.98 169.3 21.87C169.3 20.73 168.52 20.07 167.485 20.07C166.465 20.07 165.655 20.73 165.655 21.87ZM171.235 21.87C171.235 23.88 169.6 25.365 167.485 25.365C165.37 25.365 163.72 23.88 163.72 21.87C163.72 19.83 165.37 18.36 167.485 18.36C169.6 18.36 171.235 19.83 171.235 21.87ZM167.785 29.475H175.345V31.05H165.805V26.43H167.785V29.475Z" fill="#271F17"/>
</svg>
