<svg width="628" height="154" viewBox="0 0 628 154" fill="none" xmlns="http://www.w3.org/2000/svg">
<path d="M7.984 24.336V19.92C7.984 8.68799 13.168 0.0479965 26.704 0.0479965C30.832 0.0479965 34.48 1.008 36.88 1.96799L34.288 12.336C32.464 11.664 30.352 11.184 28.624 11.184C24.4 11.184 22.096 13.68 22.096 19.632V24.24H32.176V35.376H22.096V78H7.984V35.376H0.784V24.912L7.984 24.336ZM60.016 67.632L61.744 78.096C60.208 78.768 57.808 79.344 54.544 79.344C44.656 79.344 41.296 72.912 41.296 62.928V1.392H55.312V63.6C55.312 66.768 56.848 67.824 58.096 67.824C58.672 67.824 59.152 67.824 60.016 67.632ZM94.8183 79.344C79.8423 79.344 68.1303 68.88 68.1303 51.216C68.1303 33.744 80.3223 22.896 93.1863 22.896C107.97 22.896 115.65 33.744 115.65 48.624C115.65 51.216 115.362 53.808 114.978 55.056H81.8583C83.0103 63.888 88.7703 68.496 96.7383 68.496C101.154 68.496 104.994 67.152 108.834 64.752L113.634 73.392C108.354 77.04 101.538 79.344 94.8183 79.344ZM81.6663 45.744H103.554C103.554 38.448 100.29 33.84 93.3783 33.84C87.7143 33.84 82.7223 37.872 81.6663 45.744ZM146.184 79.344C132.84 79.344 124.2 68.784 124.2 51.216C124.2 33.648 135.144 22.896 146.76 22.896C152.808 22.896 156.552 25.2 160.392 28.752L159.816 20.304V1.392H173.927V78H162.504L161.352 72.432H161.064C157.128 76.272 151.752 79.344 146.184 79.344ZM149.832 67.728C153.576 67.728 156.744 66.192 159.816 62.16V38.544C156.552 35.568 153.192 34.512 149.832 34.512C143.784 34.512 138.696 40.272 138.696 51.024C138.696 62.16 142.728 67.728 149.832 67.728ZM207.965 101.328C195.293 101.328 185.501 97.008 185.501 87.504C185.501 82.992 188.285 79.152 193.181 76.368V75.888C190.397 74.064 188.285 71.28 188.285 66.864C188.285 62.832 191.069 59.088 194.237 56.784V56.4C190.589 53.712 187.133 48.624 187.133 42.384C187.133 29.712 197.405 22.896 208.829 22.896C211.805 22.896 214.685 23.472 216.893 24.24H236.285V34.608H227.069C228.509 36.432 229.565 39.408 229.565 42.768C229.565 54.864 220.349 61.008 208.829 61.008C206.717 61.008 204.221 60.528 201.917 59.76C200.381 61.008 199.613 62.256 199.613 64.368C199.613 67.248 201.725 68.784 208.061 68.784H217.181C230.141 68.784 237.149 72.816 237.149 82.224C237.149 93.072 225.917 101.328 207.965 101.328ZM208.829 52.272C213.533 52.272 217.181 48.72 217.181 42.384C217.181 36.048 213.629 32.496 208.829 32.496C204.029 32.496 200.381 36.048 200.381 42.384C200.381 48.72 204.125 52.272 208.829 52.272ZM210.077 92.4C218.141 92.4 223.709 88.848 223.709 84.624C223.709 80.784 220.541 79.824 214.781 79.824H208.253C204.989 79.824 202.685 79.536 200.765 79.056C198.365 80.976 197.213 83.088 197.213 85.296C197.213 89.808 202.205 92.4 210.077 92.4ZM267.881 79.344C252.905 79.344 241.193 68.88 241.193 51.216C241.193 33.744 253.385 22.896 266.249 22.896C281.033 22.896 288.713 33.744 288.713 48.624C288.713 51.216 288.425 53.808 288.041 55.056H254.921C256.073 63.888 261.833 68.496 269.801 68.496C274.217 68.496 278.057 67.152 281.897 64.752L286.697 73.392C281.417 77.04 274.601 79.344 267.881 79.344ZM254.729 45.744H276.617C276.617 38.448 273.353 33.84 266.441 33.84C260.777 33.84 255.785 37.872 254.729 45.744ZM300.814 98.448L297.838 90.768C305.23 87.984 309.358 83.184 309.358 77.616C309.07 77.616 308.782 77.616 308.494 77.616C303.886 77.616 299.662 74.64 299.662 69.264C299.662 64.176 303.79 60.912 308.782 60.912C315.31 60.912 318.958 66.096 318.958 74.832C318.958 86.064 312.334 94.608 300.814 98.448ZM25.12 125.72L25.744 130.76C20.32 131.912 15.232 132.2 5.344 132.2H1.6V111.896H21.424V116.936H7.888V127.112C15.904 127.064 20.32 126.728 25.12 125.72ZM20.368 148.136C25.984 148.136 29.104 146.84 29.104 144.2C29.104 141.512 25.984 140.264 20.368 140.264C14.8 140.264 11.68 141.512 11.68 144.2C11.68 146.84 14.8 148.136 20.368 148.136ZM20.368 135.224C29.536 135.224 35.344 138.584 35.344 144.2C35.344 149.816 29.536 153.176 20.368 153.176C11.296 153.176 5.44 149.816 5.44 144.2C5.44 138.584 11.296 135.224 20.368 135.224ZM34.96 119.384H40.72V124.52H34.96V134.456H28.576V108.872H34.96V119.384ZM80.9403 108.968V141.176H74.5563V108.968H80.9403ZM71.2923 129.464L68.0763 134.504C63.1803 132.824 59.8203 129.56 57.9003 125.432C55.8843 129.896 52.4283 133.496 47.2923 135.272L44.0763 130.232C51.4203 127.736 54.5883 121.544 54.5883 115.688V111.368H61.0203V115.688C61.0203 121.496 64.0923 127.16 71.2923 129.464ZM57.8523 147.32H82.0443V152.36H51.5163V138.104H57.8523V147.32ZM102.585 111.848C109.497 111.848 114.777 116.408 114.777 122.744C114.777 129.128 109.497 133.64 102.585 133.64C95.6725 133.64 90.4405 129.128 90.4405 122.744C90.4405 116.408 95.6725 111.848 102.585 111.848ZM102.585 117.272C99.1765 117.272 96.5845 119.288 96.5845 122.744C96.5845 126.2 99.1765 128.216 102.585 128.216C105.993 128.216 108.585 126.2 108.585 122.744C108.585 119.288 105.993 117.272 102.585 117.272ZM118.905 108.872H125.241V153.224H118.905V108.872ZM89.3845 144.248L88.5685 139.112C96.3445 139.112 107.193 139.064 116.505 137.672L116.889 142.232C107.385 144.152 97.0165 144.248 89.3845 144.248ZM175.328 108.872H181.328V153.08H175.328V131.192H171.776V151.112H165.872V138.056L162.224 142.952C158.48 140.84 156.032 137.288 154.592 132.968C153.056 137.816 150.464 141.848 146.528 144.248L142.592 139.592C149.216 135.656 151.568 127.688 151.568 120.2V112.76H157.712V119.72C157.712 127.352 159.776 134.552 165.872 137.96V109.64H171.776V126.104H175.328V108.872ZM235.111 108.92V138.152H228.775V108.92H235.111ZM201.463 112.184H221.863C221.863 124.232 214.903 132.488 201.319 136.424L198.919 131.48C208.951 128.648 214.231 123.608 215.143 117.224H201.463V112.184ZM223.447 135.512V136.952C223.447 141.848 227.863 146.744 237.319 148.088L234.871 152.984C227.815 151.832 222.775 148.76 220.183 144.488C217.591 148.76 212.551 151.832 205.399 152.984L203.047 148.088C212.455 146.744 216.919 141.848 216.919 136.952V135.512H223.447ZM273.219 132.296V123.272H266.211V118.28H273.219V108.92H279.555V132.296H273.219ZM266.499 125.624L266.979 130.568C261.171 131.384 256.227 131.432 248.067 131.432H244.611V111.368H265.011V116.264H250.899V119H263.667V123.608H250.899V126.488C257.235 126.44 261.507 126.344 266.499 125.624ZM256.707 148.04H280.803V152.792H250.467V141.08H273.267V138.68H250.371V133.928H279.555V145.544H256.707V148.04ZM317.04 108.872H323.376V153.224H317.04V108.872ZM299.616 111.992C306.288 111.992 311.232 118.04 311.232 127.736C311.232 137.48 306.288 143.576 299.616 143.576C292.944 143.576 288 137.48 288 127.736C288 118.04 292.944 111.992 299.616 111.992ZM299.616 117.704C296.352 117.704 294.096 121.208 294.096 127.736C294.096 134.312 296.352 137.816 299.616 137.816C302.88 137.816 305.136 134.312 305.136 127.736C305.136 121.208 302.88 117.704 299.616 117.704ZM352.823 142.376V147.608H377.543V152.648H346.535V137.336H377.111V142.376H352.823ZM364.919 129.368H381.815V134.408H341.831V129.368H358.583V125.912H346.727V110.648H377.015V115.688H353.015V120.872H377.399V125.912H364.919V129.368ZM397.795 137.816C401.059 137.816 403.315 134.312 403.315 127.736C403.315 121.208 401.059 117.704 397.795 117.704C394.483 117.704 392.275 121.208 392.275 127.736C392.275 134.312 394.483 137.816 397.795 137.816ZM397.795 111.992C404.467 111.992 409.411 118.04 409.411 127.736C409.411 137.48 404.467 143.576 397.795 143.576C391.075 143.576 386.179 137.48 386.179 127.736C386.179 118.04 391.075 111.992 397.795 111.992ZM426.979 125.576V130.808H420.547V153.128H414.211V108.92H420.547V125.576H426.979ZM454.959 122.648L455.679 127.688C448.479 129.128 441.807 129.56 435.615 129.56H431.871V110.84H438.207V124.28C443.439 124.184 449.055 123.8 454.959 122.648ZM442.095 144.776V147.656H466.143V152.6H435.759V140.12H458.559V137.528H435.711V132.536H464.895V144.776H442.095ZM464.895 117.176H470.751V122.312H464.895V130.76H458.559V108.872H464.895V117.176ZM491.559 119.24V137.144C492.663 137.048 493.911 136.856 495.207 136.568L495.687 141.704C492.471 142.424 490.167 142.472 487.863 142.472H485.895V114.2H495.207V119.24H491.559ZM502.503 119.24V137.144C503.895 137.048 505.335 136.856 507.015 136.472L507.495 141.656C504.135 142.424 501.543 142.472 498.903 142.472H496.839V114.2H506.439V119.24H502.503ZM517.767 108.872H523.671V153.08H517.767V131.096H514.551V151.112H508.743V109.592H514.551V126.008H517.767V108.872ZM530.339 113.432H542.291C542.291 125.624 541.187 135.128 533.315 143.864L528.371 140.264C534.227 133.784 535.955 127.4 536.291 118.52H530.339V113.432ZM543.779 113.432H554.483C554.483 126.2 553.475 137.096 545.747 146.648L540.755 143.144C546.611 135.752 548.195 128.36 548.531 118.52H543.779V113.432ZM570.131 126.2V131.432H564.419V153.08H558.035V108.872H564.419V126.2H570.131ZM590.527 118.376V120.824C590.527 128.024 594.079 135.656 601.471 138.728L598.015 143.72C592.879 141.512 589.375 137.192 587.407 131.864C585.439 137.624 581.887 142.472 576.703 144.824L573.103 139.784C580.495 136.472 584.095 128.36 584.095 120.824V118.376H574.879V113.144H599.647V118.376H590.527ZM603.727 108.92H610.063V153.128H603.727V108.92ZM623.307 149.672C620.811 149.672 618.939 147.656 618.939 145.064C618.939 142.472 620.811 140.456 623.307 140.456C625.851 140.456 627.723 142.472 627.723 145.064C627.723 147.656 625.851 149.672 623.307 149.672Z" fill="#271F17"/>
</svg>
